<?xml version="1.0" standalone="no"?><!DOCTYPE svg PUBLIC "-//W3C//DTD SVG 1.1//EN" "http://www.w3.org/Graphics/SVG/1.1/DTD/svg11.dtd"><svg t="1743483759559" class="icon" viewBox="0 0 1024 1024" version="1.1" xmlns="http://www.w3.org/2000/svg" p-id="6179" xmlns:xlink="http://www.w3.org/1999/xlink" width="200" height="200"><path d="M227.555556 512m28.444444 0l56.888889 0q28.444444 0 28.444444 28.444444l0 227.555556q0 28.444444-28.444444 28.444444l-56.888889 0q-28.444444 0-28.444444-28.444444l0-227.555556q0-28.444444 28.444444-28.444444Z" p-id="6180"></path><path d="M455.111111 512m28.444445 0l56.888888 0q28.444444 0 28.444445 28.444444l0 227.555556q0 28.444444-28.444445 28.444444l-56.888888 0q-28.444444 0-28.444445-28.444444l0-227.555556q0-28.444444 28.444445-28.444444Z" p-id="6181"></path><path d="M682.666667 512m28.444444 0l56.888889 0q28.444444 0 28.444444 28.444444l0 227.555556q0 28.444444-28.444444 28.444444l-56.888889 0q-28.444444 0-28.444444-28.444444l0-227.555556q0-28.444444 28.444444-28.444444Z" p-id="6182"></path><path d="M142.222222 910.222222h739.555556a28.444444 28.444444 0 0 0 0-56.888889h-739.555556a28.444444 28.444444 0 0 0 0 56.888889zM995.555556 967.111111H28.444444a28.444444 28.444444 0 0 0 0 56.888889h967.111112a28.444444 28.444444 0 0 0 0-56.888889zM200.817778 455.111111h622.364444a87.04 87.04 0 0 0 52.906667-155.875555L564.906667 61.44a87.04 87.04 0 0 0-105.813334 0L147.911111 299.235556A87.04 87.04 0 0 0 200.817778 455.111111z m-18.204445-110.364444l311.182223-238.364445a31.857778 31.857778 0 0 1 36.408888 0l311.182223 238.364445a28.444444 28.444444 0 0 1 10.24 32.995555 29.013333 29.013333 0 0 1-28.444445 20.48H200.817778A29.013333 29.013333 0 0 1 170.666667 377.742222a28.444444 28.444444 0 0 1 11.946666-32.995555z" p-id="6183"></path><path d="M512 284.444444m-56.888889 0a56.888889 56.888889 0 1 0 113.777778 0 56.888889 56.888889 0 1 0-113.777778 0Z" p-id="6184"></path></svg>