<?xml version="1.0" standalone="no"?><!DOCTYPE svg PUBLIC "-//W3C//DTD SVG 1.1//EN" "http://www.w3.org/Graphics/SVG/1.1/DTD/svg11.dtd"><svg t="1743483959537" class="icon" viewBox="0 0 1024 1024" version="1.1" xmlns="http://www.w3.org/2000/svg" p-id="14259" xmlns:xlink="http://www.w3.org/1999/xlink" width="200" height="200"><path d="M753.554171 286.813245c3.16468 1.808389 6.216336 3.616777 9.267991 5.764238l9.267991 6.32936 0.113024 11.07638c0.452097 32.211921-3.390728 59.450773-11.754525 80.360265-7.798675 19.214128-19.327152 33.568212-34.698455 42.158057-10.511258 37.411038-22.830905 72.05298-40.236644 101.269757-20.118322 33.568212-46.622517 59.337748-84.090067 73.239736-16.727594 6.103311-59.563797 9.041943-100.704635 8.363796-39.784547-0.565121-79.682119-4.520971-95.505519-11.867549-34.020309-15.710375-57.924945-42.045033-76.178367-74.878587-15.540839-28.030022-26.673731-60.750552-36.280794-95.166446-15.936424-8.363797-27.916998-22.604857-35.941722-41.932009-8.815894-21.192053-12.884768-48.82649-12.319647-81.603532l0.113024-11.189404 9.267991-6.216336q3.560265-2.37351 7.064018-4.407947c-10.398234-128.960706-6.442384-176.600442 41.366888-231.134658 93.358057-76.517439 307.426049-73.804857 402.027373-4.407947 64.423841 60.750552 68.944812 128.960706 49.165563 234.299338z m-196.097131 372.867108l1.412804 29.499338-17.518764 28.934216 24.413245 160.268433 99.856954-214.859161L817.864987 658.324062c78.664901 74.42649 129.073731 249.614128 116.64106 363.825165H86.032758c2.147461-100.309051 20.570419-271.710375 120.483885-358.965121l137.550552 1.243267 128.847682 212.429139L497.158586 718.000883l-17.518764-28.821192 1.412803-29.499338c33.342163-1.808389 43.175276-1.808389 76.51744 0z m113.815453-418.58543c-60.467991 11.86755-150.548344 22.152759-221.810155-17.857837-27.351876-15.371302-67.475497 16.162472-100.30905 12.884768a246.336424 246.336424 0 0 0-22.15276 65.554084L323.383751 321.003091l-19.440176-1.921413a26.716115 26.716115 0 0 0-11.302429 1.412803 34.867991 34.867991 0 0 0-5.312141 2.147462c0.565121 21.474614 3.503753 39.219426 9.041943 52.556291 4.860044 11.754525 11.754525 19.327152 20.570419 22.152759l11.415453 3.503753 3.16468 11.415453c9.49404 35.320088 20.231347 68.718764 35.320088 95.844591 13.901987 25.204415 31.759823 45.209713 56.512141 56.625166 10.398234 4.74702 43.401325 7.459603 77.986755 8.024724 36.732892 0.565121 73.352759-1.412804 85.446358-5.877263 27.238852-10.059161 46.792053-29.499338 62.050331-54.929801 16.388521-27.351876 28.030022-62.050331 38.145695-100.139514l2.938632-10.850332 10.850331-3.729801c8.589845-3.051656 15.258278-10.850331 19.892273-22.604856 5.312141-13.223841 8.250773-30.742605 8.70287-51.765122a27.860486 27.860486 0 0 0-4.74702-1.921413 29.513466 29.513466 0 0 0-10.963355-1.695364l-18.98808 1.243267-3.390728-18.649006a252.6234 252.6234 0 0 0-20.005298-60.750552z" p-id="14260" fill="#2c2c2c" data-spm-anchor-id="a313x.search_index.0.i11.71e53a815eHF4Q" class="selected"></path></svg>