<?xml version="1.0" standalone="no"?><!DOCTYPE svg PUBLIC "-//W3C//DTD SVG 1.1//EN" "http://www.w3.org/Graphics/SVG/1.1/DTD/svg11.dtd"><svg t="1743483873260" class="icon" viewBox="0 0 1024 1024" version="1.1" xmlns="http://www.w3.org/2000/svg" p-id="11328" xmlns:xlink="http://www.w3.org/1999/xlink" width="200" height="200"><path d="M512.7 564.2c-59.1 0-114.6-23.5-156.3-66.3-41.5-42.5-64.4-99-64.4-159.1s22.9-116.5 64.4-159.1c41.7-42.7 97.2-66.3 156.3-66.3 59.1 0 114.6 23.5 156.3 66.3 41.5 42.5 64.4 99 64.4 159.1S710.5 455.4 669 497.9c-41.7 42.7-97.2 66.3-156.3 66.3z m0-389c-87.7 0-159 73.4-159 163.6 0 90.2 71.3 163.6 159 163.6s159-73.4 159-163.6c0-90.2-71.3-163.6-159-163.6z" fill="#2c2c2c" p-id="11329" data-spm-anchor-id="a313x.search_index.0.i7.71e53a815eHF4Q" class="selected"></path><path d="M869 922.1c-17 0-30.8-13.8-30.8-30.8v-84.6c0-56.2-23.3-109.2-65.6-149.4-42.7-40.6-99.3-63-159.4-63h-201c-60.1 0-116.7 22.4-159.4 63-42.3 40.2-65.6 93.3-65.6 149.4v84.6c0 17-13.8 30.8-30.8 30.8s-30.8-13.8-30.8-30.8v-84.6c0-37.1 7.7-73.1 22.9-107 14.6-32.6 35.4-61.9 61.9-87.1 54.2-51.6 125.9-79.9 201.9-79.9h201c76 0 147.7 28.4 201.9 79.9 26.5 25.2 47.3 54.5 61.9 87.1 15.2 34 22.9 70 22.9 107v84.6c-0.2 17-14 30.8-31 30.8z" fill="#2c2c2c" p-id="11330" data-spm-anchor-id="a313x.search_index.0.i5.71e53a815eHF4Q" class="selected"></path><path d="M365.4 334.6c-14.3 0-24.3-0.5-27.2-1.1-11.1-2.2-18.4-13.1-16.1-24.2 2.2-10.8 12.4-17.9 23.2-16.3 5.1 0.4 46.9 1.9 93.3-3.8 73.1-9 96.6-27.7 104.1-38 3.6-4.9 9.1-8 15.1-8.4 6-0.4 12 1.8 16.2 6.2 0 0 11.2 11.2 29.5 20.2 23.3 11.5 47 14.5 70.5 8.8 11-2.7 22.1 4.1 24.8 15.2 2.7 11-4.1 22.1-15.2 24.8-11.5 2.8-22.5 3.9-32.9 3.9-40.3 0-72.1-17.7-90.1-30.8-24.5 19.6-64.9 32.8-120.6 39.3-27.6 3.2-55.1 4.2-74.6 4.2z m-20-41.6c0.3 0 0.5 0.1 0.8 0.1-0.2 0-0.4 0-0.8-0.1z" fill="#2c2c2c" p-id="11331" data-spm-anchor-id="a313x.search_index.0.i8.71e53a815eHF4Q" class="selected"></path></svg>